<svg width="143" height="20" viewBox="0 0 143 20" fill="none" xmlns="http://www.w3.org/2000/svg">
<path fill-rule="evenodd" clip-rule="evenodd" d="M0 0H8.20029L12.7286 10.8273L8.35994 20L0 0Z" fill="white"/>
<path fill-rule="evenodd" clip-rule="evenodd" d="M17.8809 0H26.3859V20H17.8809V0Z" fill="white"/>
<path d="M47.504 16.5597H46.0236V6.90801L41.0889 12.728L36.1542 6.90801V16.5597H34.6738V4.28101H35.5011L41.0744 10.8848L46.6477 4.28101H47.475V16.5597H47.504ZM53.5563 13.2941L52.1194 16.5597H50.4939L55.9801 4.28101H56.8073L62.279 16.5597H60.6535L59.2166 13.2941H53.5563ZM56.3864 6.80641L54.0788 12.0169H58.6941L56.3864 6.80641ZM68.0846 5.55823V16.5597H66.6042V5.55823H62.4968V4.28101H72.1629V5.55823H68.0846ZM74.9496 4.28101H79.2021C80.9002 4.28101 82.279 4.67289 83.3385 5.47114C84.3981 6.2694 84.9205 7.34342 84.9205 8.70772C84.9205 9.70917 84.6158 10.5365 84.0062 11.2186C83.3966 11.9008 82.5693 12.3797 81.5243 12.6555C82.25 12.9312 82.9757 13.6134 83.7159 14.6874L85.0367 16.5597H83.3531L82.279 14.9922C81.742 14.223 81.2631 13.715 80.8422 13.4828C80.4213 13.2505 79.8552 13.1199 79.115 13.1199H76.4155V16.5597H74.9351V4.28101H74.9496ZM76.43 5.55823V11.8427H79.3182C80.5374 11.8427 81.5533 11.5814 82.3371 11.059C83.1208 10.5365 83.5127 9.75271 83.5127 8.70772C83.5127 7.67724 83.1208 6.8935 82.3371 6.371C81.5533 5.83399 80.5374 5.57274 79.3182 5.57274H76.43V5.55823ZM89.1876 5.99364C90.4938 4.77448 92.0904 4.1649 93.9481 4.1649C95.8204 4.1649 97.4024 4.77448 98.7232 5.99364C100.044 7.2128 100.697 8.69321 100.697 10.4203C100.697 12.1475 100.044 13.6279 98.7232 14.847C97.4024 16.0662 95.8204 16.6758 93.9481 16.6758C92.0758 16.6758 90.4938 16.0662 89.1876 14.847C87.8814 13.6279 87.2137 12.1475 87.2137 10.4203C87.2282 8.69321 87.8814 7.2128 89.1876 5.99364ZM97.7072 6.86447C96.6912 5.90656 95.443 5.4276 93.9626 5.4276C92.4822 5.4276 91.2486 5.90656 90.2326 6.86447C89.2166 7.82238 88.7086 8.99799 88.7086 10.4203C88.7086 11.8427 89.2166 13.0183 90.2326 13.9762C91.2486 14.9341 92.4967 15.4131 93.9626 15.4131C95.443 15.4131 96.6912 14.9341 97.7072 13.9762C98.7232 13.0183 99.2457 11.8427 99.2457 10.4203C99.2457 8.99799 98.7232 7.82238 97.7072 6.86447ZM107.954 4.15039H108.157C109.086 4.15039 109.986 4.32456 110.828 4.6874C111.684 5.05024 112.381 5.55823 112.932 6.19683L111.974 7.00961C111.524 6.51614 110.944 6.13878 110.247 5.8485C109.55 5.57274 108.854 5.4276 108.143 5.4276H107.939C107.156 5.4276 106.444 5.61628 105.806 5.99364C105.167 6.371 104.848 6.8935 104.848 7.57564C104.848 8.09814 105.08 8.50453 105.545 8.7948C106.009 9.08508 106.72 9.28827 107.693 9.40438L109.144 9.57855C110.537 9.7382 111.597 10.101 112.323 10.6381C113.048 11.1751 113.397 11.9878 113.397 13.0619C113.397 14.1359 112.932 15.0067 111.989 15.6743C111.045 16.342 109.899 16.6758 108.52 16.6903H108.404C107.127 16.6903 106.024 16.4436 105.109 15.9646C104.18 15.4857 103.498 14.8325 103.077 14.0198L104.035 13.1925C104.354 13.8456 104.892 14.3826 105.646 14.789C106.401 15.1954 107.33 15.3986 108.404 15.3986H108.52C109.492 15.3986 110.305 15.1809 110.944 14.76C111.597 14.3391 111.916 13.773 111.916 13.0619C111.916 12.3942 111.669 11.8862 111.176 11.5379C110.683 11.1896 109.942 10.9574 108.97 10.8267L107.533 10.6671C106.154 10.5074 105.124 10.1736 104.427 9.68014C103.73 9.18667 103.382 8.49001 103.382 7.59016C103.382 6.55968 103.832 5.73239 104.717 5.09379C105.617 4.48421 106.691 4.1649 107.954 4.15039ZM117.736 5.99364C119.042 4.77448 120.639 4.1649 122.497 4.1649C124.369 4.1649 125.951 4.77448 127.272 5.99364C128.593 7.2128 129.246 8.69321 129.246 10.4203C129.246 12.1475 128.593 13.6279 127.272 14.847C125.951 16.0662 124.369 16.6758 122.497 16.6758C120.624 16.6758 119.042 16.0662 117.736 14.847C116.43 13.6279 115.762 12.1475 115.762 10.4203C115.762 8.69321 116.43 7.2128 117.736 5.99364ZM126.241 6.86447C125.225 5.90656 123.977 5.4276 122.497 5.4276C121.016 5.4276 119.783 5.90656 118.767 6.86447C117.751 7.82238 117.243 8.99799 117.243 10.4203C117.243 11.8427 117.751 13.0183 118.767 13.9762C119.783 14.9341 121.031 15.4131 122.497 15.4131C123.977 15.4131 125.225 14.9341 126.241 13.9762C127.257 13.0183 127.78 11.8427 127.78 10.4203C127.78 8.99799 127.272 7.82238 126.241 6.86447ZM137.112 16.5597H136.299L130.741 4.28101H132.366L136.691 14.0198L141.002 4.28101H142.627L137.112 16.5597Z" fill="white"/>
</svg>
