<svg width="16" height="16" viewBox="0 0 16 16" fill="none" xmlns="http://www.w3.org/2000/svg">
<g opacity="0.8" clip-path="url(#clip0)">
<path d="M15.4367 9.26104C15.9141 5.24304 15.2074 2.70637 13.9327 1.55904L13.9334 1.55837C11.8761 -0.40096 4.92805 -0.69096 2.46672 1.64637C1.36139 2.78971 0.972053 4.46771 0.929386 6.54504C0.88672 8.62304 0.836053 12.5157 4.46339 13.5717H4.46672L4.46339 15.1844C4.46339 15.1844 4.43872 15.8377 4.85605 15.969C5.33339 16.1237 5.54939 15.8204 7.03405 14.047C9.51672 14.2624 11.4234 13.769 11.6401 13.697C12.1414 13.529 14.9781 13.1537 15.4367 9.26104ZM7.27872 12.9124C7.27872 12.9124 5.70739 14.8717 5.21872 15.3804C5.05872 15.5457 4.88339 15.5304 4.88605 15.2024C4.88605 14.987 4.89805 12.525 4.89805 12.525C1.82272 11.6437 2.00405 8.32904 2.03739 6.59504C2.07072 4.86037 2.38805 3.43971 3.32405 2.48304C5.48339 0.458373 11.5747 0.91104 13.1267 2.36971C15.0241 4.05171 14.3487 8.80371 14.3527 8.96571C13.9627 12.215 11.6641 12.421 11.2414 12.5617C11.0607 12.6217 9.38405 13.053 7.27872 12.9124Z" fill="white"/>
<path d="M8.14758 2.86523C7.89091 2.86523 7.89091 3.26523 8.14758 3.26857C10.1389 3.2839 11.7789 4.6719 11.7969 7.2179C11.7969 7.48657 12.1902 7.48323 12.1869 7.21457H12.1862C12.1649 4.47123 10.3742 2.88057 8.14758 2.86523Z" fill="white"/>
<path d="M10.768 6.79536C10.762 7.06069 11.1546 7.07336 11.158 6.80469C11.1906 5.29202 10.258 4.04602 8.50528 3.91469C8.24861 3.89602 8.22194 4.29936 8.47794 4.31802C9.99795 4.43336 10.7986 5.47069 10.768 6.79536Z" fill="white"/>
<path d="M10.3468 8.51542C10.0175 8.32475 9.68215 8.44342 9.54349 8.63075L9.25349 9.00609C9.10615 9.19675 8.83082 9.17142 8.83082 9.17142C6.82149 8.64009 6.28416 6.53742 6.28416 6.53742C6.28416 6.53742 6.25949 6.25275 6.44349 6.10009L6.80615 5.80009C6.98749 5.65609 7.10215 5.30942 6.91749 4.96875C6.42416 4.07742 6.09282 3.77008 5.92416 3.53408C5.74682 3.31208 5.48016 3.26208 5.20282 3.41208H5.19682C4.62016 3.74942 3.98882 4.38075 4.19082 5.03075C4.53549 5.71608 5.16882 7.90075 7.18749 9.55142C8.13615 10.3321 9.63749 11.1321 10.2748 11.3168L10.2808 11.3261C10.9088 11.5354 11.5195 10.8794 11.8455 10.2854V10.2808C11.9901 9.99342 11.9421 9.72142 11.7308 9.54342C11.3562 9.17809 10.7908 8.77475 10.3468 8.51542Z" fill="white"/>
<path d="M8.77891 5.40376C9.41958 5.44109 9.73025 5.77576 9.76358 6.4631C9.77558 6.73176 10.1656 6.7131 10.1536 6.44443C10.1109 5.54709 9.64292 5.04709 8.80024 5.00043C8.54358 4.98509 8.51958 5.38843 8.77891 5.40376Z" fill="white"/>
<rect x="15" y="14" width="1" height="17" fill="#C4C4C4"/>
</g>
<defs>
<clipPath id="clip0">
<rect width="16" height="16" fill="white"/>
</clipPath>
</defs>
</svg>
